# xmcd CD database file
#
# Track frame offsets:
#	150
#	18114
#	34106
#	54688
#	68798
#	85547
#	101561
#	120701
#	137386
#	156268
#	171985
#
# Disc length: 2588 seconds
#
# Revision: 0
# Processed by: cddbd v1.5.1PL0 Copyright (c) Steve Scherf et al.
# Submitted via: CDex 1.51
#
DISCID=860a1a0b
DTITLE=不明 - 2年自由曲候補
DYEAR=1900
DGENRE=JPop
TTITLE0=瑠璃色の地球
TTITLE1=心の中にきらめいて
TTITLE2=君と見た海
TTITLE3=蒼い砂漠
TTITLE4=海よ空よ
TTITLE5=夢のはじまりは
TTITLE6=Song is my soul
TTITLE7=朝もやの街角
TTITLE8=南風
TTITLE9=この地球のどこかで
TTITLE10=心の瞳
EXTD=
EXTT0=
EXTT1=
EXTT2=
EXTT3=
EXTT4=
EXTT5=
EXTT6=
EXTT7=
EXTT8=
EXTT9=
EXTT10=
PLAYORDER=
